<svg width="33" height="37" viewBox="0 0 33 37" xmlns="http://www.w3.org/2000/svg" xmlns:xlink="http://www.w3.org/1999/xlink"><title>Page 1</title><defs><path id="a" d="M0 37h33V0H0z"/></defs><g fill="#fff" fill-rule="evenodd"><path d="M24 13.5h-1V10h-3.5V9H24zM0 9v28h23.999V18.5h-1V36H1V10h13.5V9zm14-9v3h1V1h2V0z"/><path d="M17.5 15.5h12v-12h-12v12zm-1 1h14v-14h-14v14zm-12.293 1L7.5 20.793l3.293-3.293L7.5 14.207 4.207 17.5zM7.5 22.207L2.793 17.5 7.5 12.793l4.707 4.707L7.5 22.207zM30 0v1h2v2h1V0zm2 16v2h-2v1h3v-3zm-15 3h-3v-3h1v2h2zm.5 7a2.503 2.503 0 0 0-2.5 2.5c0 1.378 1.12 2.5 2.5 2.5 1.379 0 2.5-1.122 2.5-2.5S18.879 26 17.5 26zm0 6c-1.93 0-3.5-1.57-3.5-3.5s1.57-3.5 3.5-3.5 3.5 1.57 3.5 3.5-1.57 3.5-3.5 3.5z"/><mask id="b"><use xlink:href="#a"/></mask><path mask="url(#b)" d="M3 26h9v-1H3zm0 3h9v-1H3zm0 3h9v-1H3z"/></g></svg>