<?xml version="1.0" encoding="UTF-8"?>
<svg width="25px" height="37px" viewBox="0 0 25 37" version="1.1" xmlns="http://www.w3.org/2000/svg" xmlns:xlink="http://www.w3.org/1999/xlink">
    <!-- Generator: Sketch 41.2 (35397) - http://www.bohemiancoding.com/sketch -->
    <title>Page 1</title>
    <desc>Created with Sketch.</desc>
    <defs>
        <polygon id="path-1" points="0 36 25 36 25 0 0 0"></polygon>
    </defs>
    <g id="LP:-Верстка" stroke="none" stroke-width="1" fill="none" fill-rule="evenodd">
        <g id="Главная-страница-[960]" transform="translate(-348.000000, -1030.000000)">
            <g id="Group-20-Copy-2" transform="translate(130.000000, 980.000000)">
                <g id="Page-1" transform="translate(218.000000, 50.000000)">
                    <polygon id="Fill-1" fill="#000000" points="6.9993 5.0004 6.9993 6.0004 23.9993 6.0004 23.9993 35.0004 1.0003 35.0004 1.0003 6.0004 3.9993 6.0004 3.9993 5.0004 0.0003 5.0004 0.0003 36.0004 24.9993 36.0004 24.9993 5.0004"></polygon>
                    <g id="Group-12">
                        <path d="M7.0154,12 C5.8904,12 4.9994,11.109 4.9994,10.015 L4.9994,2.976 C4.9994,1.335 6.3344,0 7.9754,0 C9.6654,0 10.9994,1.335 10.9994,2.976 L10.9994,4 L9.9994,4 L9.9994,2.976 C9.9994,1.886 9.1144,1 8.0254,1 C6.8864,1 5.9994,1.886 5.9994,2.976 L5.9994,10.015 C5.9994,10.558 6.4424,11 6.9854,11 C7.5584,11 7.9994,10.558 7.9994,10.015 L7.9994,7 L8.9994,7 L8.9994,10.015 C8.9994,11.109 8.1094,12 7.0154,12 Z" id="Fill-2" fill="#000000"></path>
                        <mask id="mask-2" fill="white">
                            <use xlink:href="#path-1"></use>
                        </mask>
                        <g id="Clip-5"></g>
                        <polygon id="Fill-4" fill="#000000" mask="url(#mask-2)" points="11 12 20 12 20 11 11 11"></polygon>
                        <polygon id="Fill-6" fill="#000000" mask="url(#mask-2)" points="5 15 20 15 20 14 5 14"></polygon>
                        <polygon id="Fill-7" fill="#000000" mask="url(#mask-2)" points="5 18 20 18 20 17 5 17"></polygon>
                        <polygon id="Fill-8" fill="#000000" mask="url(#mask-2)" points="5 21 20 21 20 20 5 20"></polygon>
                        <polygon id="Fill-9" fill="#000000" mask="url(#mask-2)" points="5 24 20 24 20 23 5 23"></polygon>
                        <polygon id="Fill-10" fill="#000000" mask="url(#mask-2)" points="5 27 20 27 20 26 5 26"></polygon>
                        <polygon id="Fill-11" fill="#000000" mask="url(#mask-2)" points="5 30 20 30 20 29 5 29"></polygon>
                    </g>
                </g>
            </g>
        </g>
    </g>
</svg>