<?xml version="1.0" encoding="UTF-8"?>
<svg width="45px" height="36px" viewBox="0 0 45 36" version="1.1" xmlns="http://www.w3.org/2000/svg" xmlns:xlink="http://www.w3.org/1999/xlink">
    <!-- Generator: Sketch 41.2 (35397) - http://www.bohemiancoding.com/sketch -->
    <title>Imported Layers Copy 35</title>
    <desc>Created with Sketch.</desc>
    <defs></defs>
    <g id="LP:-Верстка" stroke="none" stroke-width="1" fill="none" fill-rule="evenodd">
        <g id="Главная-страница-[960]" transform="translate(-817.000000, -1030.000000)" fill="#fff">
            <g id="Group-20-Copy-2" transform="translate(130.000000, 980.000000)">
                <g id="Imported-Layers-Copy-35" transform="translate(687.000000, 50.000000)">
                    <polygon id="Fill-1" fill="#FFFFFF" points="19.3846154 29.7692308 26.3076923 29.7692308 26.3076923 35.3076923 19.3846154 35.3076923"></polygon>
                    <path d="M42.2307692,2.76923077 C42.2307692,1.62207692 41.301,0.692307692 40.1538462,0.692307692 L5.53846154,0.692307692 C4.39130769,0.692307692 3.46153846,1.62207692 3.46153846,2.76923077 L3.46153846,27.6923077 C3.46153846,28.8394615 4.39130769,29.7692308 5.53846154,29.7692308 L40.1538462,29.7692308 C41.301,29.7692308 42.2307692,28.8394615 42.2307692,27.6923077 L42.2307692,2.76923077" id="Fill-2" fill="#FFFFFF"></path>
                    <path d="M40.1538462,30.4615385 L5.53846154,30.4615385 C4.01123077,30.4615385 2.76923077,29.2195385 2.76923077,27.6923077 L2.76923077,2.76923077 C2.76923077,1.242 4.01123077,0 5.53846154,0 L40.1538462,0 C41.6810769,0 42.9230769,1.242 42.9230769,2.76923077 L42.9230769,27.6923077 C42.9230769,29.2195385 41.6810769,30.4615385 40.1538462,30.4615385 L40.1538462,30.4615385 Z M5.53846154,1.38461538 C4.77484615,1.38461538 4.15384615,2.00561538 4.15384615,2.76923077 L4.15384615,27.6923077 C4.15384615,28.4559231 4.77484615,29.0769231 5.53846154,29.0769231 L40.1538462,29.0769231 C40.9174615,29.0769231 41.5384615,28.4559231 41.5384615,27.6923077 L41.5384615,2.76923077 C41.5384615,2.00561538 40.9174615,1.38461538 40.1538462,1.38461538 L5.53846154,1.38461538 L5.53846154,1.38461538 Z" id="Fill-3" fill="#fff"></path>
                    <polygon id="Fill-4" fill="#fff" points="24.9230769 30.4615385 26.3076923 30.4615385 26.3076923 34.6153846 24.9230769 34.6153846"></polygon>
                    <polygon id="Fill-5" fill="#fff" points="19.3846154 30.4615385 20.7692308 30.4615385 20.7692308 34.6153846 19.3846154 34.6153846"></polygon>
                    <polygon id="Fill-6" fill="#fff" points="18 34.6153846 27.6923077 34.6153846 27.6923077 36 18 36"></polygon>
                    <polygon id="Fill-7" fill="#fff" points="4.15384615 23.5384615 41.5384615 23.5384615 41.5384615 24.9230769 4.15384615 24.9230769"></polygon>
                    <polygon id="Fill-8" fill="#fff" points="22.1538462 26.3076923 23.5384615 26.3076923 23.5384615 27.6923077 22.1538462 27.6923077"></polygon>
                    <polygon id="Fill-9" fill="#fff" points="5.53846154 2.76923077 40.1538462 2.76923077 40.1538462 22.1538462 5.53846154 22.1538462"></polygon>
                    <polygon id="Fill-10" fill="#FFFFFF" points="6.92307692 4.15384615 13.8461538 4.15384615 13.8461538 8.30769231 6.92307692 8.30769231"></polygon>
                    <polygon id="Fill-11" fill="#FFFFFF" points="6.92307692 9.69230769 13.8461538 9.69230769 13.8461538 20.7692308 6.92307692 20.7692308"></polygon>
                    <polygon id="Fill-12" fill="#FFFFFF" points="15.2307692 4.15384615 22.1538462 4.15384615 22.1538462 8.30769231 15.2307692 8.30769231"></polygon>
                    <polygon id="Fill-13" fill="#FFFFFF" points="15.2307692 9.69230769 22.1538462 9.69230769 22.1538462 20.7692308 15.2307692 20.7692308"></polygon>
                    <polygon id="Fill-14" fill="#FFFFFF" points="23.5384615 4.15384615 30.4615385 4.15384615 30.4615385 8.30769231 23.5384615 8.30769231"></polygon>
                    <polygon id="Fill-15" fill="#FFFFFF" points="23.5384615 9.69230769 30.4615385 9.69230769 30.4615385 20.7692308 23.5384615 20.7692308"></polygon>
                    <polygon id="Fill-16" fill="#FFFFFF" points="31.8461538 4.15384615 38.7692308 4.15384615 38.7692308 8.30769231 31.8461538 8.30769231"></polygon>
                    <polygon id="Fill-17" fill="#FFFFFF" points="31.8461538 9.69230769 38.7692308 9.69230769 38.7692308 20.7692308 31.8461538 20.7692308"></polygon>
                    <path d="M15.9230769,33.9230769 C15.9230769,34.6880769 15.3034615,35.3076923 14.5384615,35.3076923 L2.07692308,35.3076923 C1.31192308,35.3076923 0.692307692,34.6880769 0.692307692,33.9230769 L0.692307692,14.5384615 C0.692307692,13.7741538 1.31192308,13.1538462 2.07692308,13.1538462 L14.5384615,13.1538462 C15.3034615,13.1538462 15.9230769,13.7741538 15.9230769,14.5384615 L15.9230769,33.9230769" id="Fill-18" fill="#FFFFFF"></path>
                    <path d="M14.5384615,36 L2.07692308,36 C0.931846154,36 0,35.0681538 0,33.9230769 L0,14.5384615 C0,13.3933846 0.931846154,12.4615385 2.07692308,12.4615385 L14.5384615,12.4615385 C15.6835385,12.4615385 16.6153846,13.3933846 16.6153846,14.5384615 L16.6153846,33.9230769 C16.6153846,35.0681538 15.6835385,36 14.5384615,36 L14.5384615,36 Z M2.07692308,13.8461538 C1.69546154,13.8461538 1.38461538,14.157 1.38461538,14.5384615 L1.38461538,33.9230769 C1.38461538,34.3045385 1.69546154,34.6153846 2.07692308,34.6153846 L14.5384615,34.6153846 C14.9199231,34.6153846 15.2307692,34.3045385 15.2307692,33.9230769 L15.2307692,14.5384615 C15.2307692,14.157 14.9199231,13.8461538 14.5384615,13.8461538 L2.07692308,13.8461538 L2.07692308,13.8461538 Z" id="Fill-19" fill="#fff"></path>
                    <polygon id="Fill-20" fill="#fff" points="6.92307692 31.8461538 9.69230769 31.8461538 9.69230769 33.2307692 6.92307692 33.2307692"></polygon>
                    <polygon id="Fill-21" fill="#fff" points="2.76923077 15.2307692 6.92307692 15.2307692 6.92307692 18 2.76923077 18"></polygon>
                    <polygon id="Fill-22" fill="#fff" points="2.76923077 19.3846154 6.92307692 19.3846154 6.92307692 30.4615385 2.76923077 30.4615385"></polygon>
                    <polygon id="Fill-23" fill="#fff" points="8.30769231 15.2307692 13.8461538 15.2307692 13.8461538 18 8.30769231 18"></polygon>
                    <polygon id="Fill-24" fill="#fff" points="8.30769231 19.3846154 13.8461538 19.3846154 13.8461538 30.4615385 8.30769231 30.4615385"></polygon>
                    <path d="M43.6153846,33.9230769 C43.6153846,34.6880769 42.9950769,35.3076923 42.2307692,35.3076923 L35.3076923,35.3076923 C34.5426923,35.3076923 33.9230769,34.6880769 33.9230769,33.9230769 L33.9230769,20.0769231 C33.9230769,19.3119231 34.5426923,18.6923077 35.3076923,18.6923077 L42.2307692,18.6923077 C42.9950769,18.6923077 43.6153846,19.3119231 43.6153846,20.0769231 L43.6153846,33.9230769" id="Fill-25" fill="#FFFFFF"></path>
                    <path d="M42.2307692,36 L35.3076923,36 C34.1626154,36 33.2307692,35.0681538 33.2307692,33.9230769 L33.2307692,20.0769231 C33.2307692,18.9318462 34.1626154,18 35.3076923,18 L42.2307692,18 C43.3758462,18 44.3076923,18.9318462 44.3076923,20.0769231 L44.3076923,33.9230769 C44.3076923,35.0681538 43.3758462,36 42.2307692,36 L42.2307692,36 Z M35.3076923,19.3846154 C34.9262308,19.3846154 34.6153846,19.6954615 34.6153846,20.0769231 L34.6153846,33.9230769 C34.6153846,34.3045385 34.9262308,34.6153846 35.3076923,34.6153846 L42.2307692,34.6153846 C42.6122308,34.6153846 42.9230769,34.3045385 42.9230769,33.9230769 L42.9230769,20.0769231 C42.9230769,19.6954615 42.6122308,19.3846154 42.2307692,19.3846154 L35.3076923,19.3846154 L35.3076923,19.3846154 Z" id="Fill-26" fill="#fff"></path>
                    <polygon id="Fill-27" fill="#fff" points="36 20.7692308 41.5384615 20.7692308 41.5384615 24.9230769 36 24.9230769"></polygon>
                    <polygon id="Fill-28" fill="#fff" points="36 26.3076923 41.5384615 26.3076923 41.5384615 27.6923077 36 27.6923077"></polygon>
                    <polygon id="Fill-29" fill="#fff" points="36 29.0769231 41.5384615 29.0769231 41.5384615 30.4615385 36 30.4615385"></polygon>
                    <polygon id="Fill-30" fill="#fff" points="38.0769231 31.8461538 39.4615385 31.8461538 39.4615385 33.2307692 38.0769231 33.2307692"></polygon>
                </g>
            </g>
        </g>
    </g>
</svg>