<svg width="25" height="37" viewBox="0 0 25 37" xmlns="http://www.w3.org/2000/svg" xmlns:xlink="http://www.w3.org/1999/xlink"><title>Page 1</title><defs><path id="a" d="M0 36h25V0H0z"/></defs><g fill="none" fill-rule="evenodd"><path fill="#000" d="M7 5v1h17v29H1V6h3V5H0v31h25V5z"/><path d="M7.015 12A1.995 1.995 0 0 1 5 10.015V2.976A2.98 2.98 0 0 1 7.975 0C9.665 0 11 1.335 11 2.976V4h-1V2.976C10 1.886 9.114 1 8.025 1 6.886 1 6 1.886 6 2.976v7.039c0 .543.443.985.986.985C7.558 11 8 10.558 8 10.015V7h1v3.015C9 11.109 8.11 12 7.015 12z" fill="#000"/><mask id="b" fill="#fff"><use xlink:href="#a"/></mask><path fill="#000" mask="url(#b)" d="M11 12h9v-1h-9zm-6 3h15v-1H5zm0 3h15v-1H5zm0 3h15v-1H5zm0 3h15v-1H5zm0 3h15v-1H5zm0 3h15v-1H5z"/></g></svg>