<svg width="36" height="36" viewBox="0 0 36 36" xmlns="http://www.w3.org/2000/svg"><title>Page 1</title><g fill-rule="evenodd"><path d="M18 1.09C8.676 1.09 1.091 8.677 1.091 18s7.585 16.91 16.91 16.91c9.323 0 16.908-7.586 16.908-16.91S27.324 1.09 18 1.09M18 36C8.074 36 0 27.925 0 18S8.074 0 18 0c9.925 0 18 8.075 18 18s-8.075 18-18 18"/><path d="M18 4.364C10.48 4.364 4.364 10.48 4.364 18S10.48 31.636 18 31.636 31.637 25.52 31.637 18 25.52 4.364 18 4.364m0 28.363C9.88 32.727 3.273 26.121 3.273 18 3.273 9.88 9.879 3.273 18 3.273c8.12 0 14.727 6.606 14.727 14.727 0 8.12-6.607 14.727-14.727 14.727"/><path d="M18 16.606a1.39 1.39 0 0 0-1.393 1.34c-.015.37.117.727.369 1 .267.29.63.447 1.024.447a1.395 1.395 0 0 0 0-2.787m0 3.878a2.49 2.49 0 0 1-1.825-.797 2.464 2.464 0 0 1-.658-1.785 2.468 2.468 0 0 1 .797-1.727c.969-.894 2.618-.829 3.51.139a2.488 2.488 0 0 1-.137 3.511 2.481 2.481 0 0 1-1.687.66"/><path d="M20.602 21.62l-2.057-2.226.802-.74 2.056 2.225zm-5.482-.217l-.74-.8 2.225-2.058.742.802zm1.515-4.058l-7.162-8.12.817-.721 7.163 8.12zm2.759.11l-.741-.801 5.786-5.348.74.8zM17.455 31.15h1.09v-2.06h-1.09zm0-24.241h1.09V4.848h-1.09zM4.848 18.545h2.06v-1.09h-2.06zm24.242 0h2.06v-1.09h-2.06z"/></g></svg>