<svg width="38" height="36" viewBox="0 0 38 36" xmlns="http://www.w3.org/2000/svg" xmlns:xlink="http://www.w3.org/1999/xlink"><title>Page 1</title><defs><path id="b" d="M0 35.85h37.477V0H0z"/><path d="M12.574 16.374a4.324 4.324 0 1 0 0-8.648 4.324 4.324 0 0 0 0 8.648z" id="a"/><mask id="d" x="0" y="0" width="8.648" height="8.648" fill="#fff"><use xlink:href="#a"/></mask></defs><g fill="none" fill-rule="evenodd"><path d="M5.84 16.526l.816-.267c1.355-.44 2.748.544 3.413 1.835l2.45 3.758c-.995.457-2.265.616-3.656.467L5.74 16.566c.034-.014.065-.029.1-.04z" fill="#FFF"/><path d="M9.303 21.65c.774.05 1.5-.007 2.133-.166l-1.994-3.066c-.575-1.116-1.669-1.778-2.567-1.487l-.114.037 2.542 4.681zm.55 1.43c-.347 0-.704-.02-1.065-.059l-.368-.04-3.676-6.77.728-.298c.062-.027.104-.043.149-.058l.817-.266c.289-.094.588-.142.89-.142 1.309 0 2.62.898 3.352 2.29l2.877 4.414-.744.342c-.846.389-1.842.587-2.96.587z" fill="#000"/><path d="M28.4 29.33h-5.688L9.5 24.426l-8.463-5.824a.756.756 0 0 1 .07-.08l.607-.608c1.008-1.007 2.695-.762 3.873.087l5.035 2.9 1.98 1.151h8.486l-.002-.774-5.261.012c-1.348-.04-2.41-1.54-2.372-2.89 0 0 .03-.307.032-.34h9.388l3.63 3.19H28.4" fill="#FFF"/><path d="M28.4 30.036h-5.815L9.172 25.058 0 18.746l.493-.594c.044-.053.077-.092.115-.13l.607-.607c1.3-1.3 3.369-.99 4.755-.008l6.822 3.94h1.337c-.878-.71-1.413-1.888-1.382-2.967l.003-.048.092-.978H23.14l3.63 3.19h1.63v1.412h-2.163l-3.63-3.19h-8.426c.136.87.835 1.795 1.664 1.819l5.945-.015.006 2.188h-9.384l-2.145-1.247-5.092-2.937c-.88-.634-2.217-.906-2.962-.161l-.084.085 7.7 5.297 13.01 4.83H28.4v1.41zm9.077-10.309h-7.964v16.122h7.964" fill="#000"/><path d="M15.939 6.706V2.235" fill="#FFF"/><mask id="c" fill="#fff"><use xlink:href="#b"/></mask><path fill="#000" mask="url(#c)" d="M15.233 6.706h1.411V2.235h-1.411z"/><path d="M8.997 6.706V2.235" fill="#FFF" mask="url(#c)"/><path fill="#000" mask="url(#c)" d="M8.291 6.706h1.412V2.235H8.291z"/><path d="M12.41 4.47V0" fill="#FFF" mask="url(#c)"/><path fill="#000" mask="url(#c)" d="M11.703 4.47h1.412V0h-1.412z"/><g mask="url(#c)" stroke-width="2" stroke="#000"><use mask="url(#d)" xlink:href="#a"/></g><path fill="#FFF" mask="url(#c)" d="M30.812 34.462h1.353V33.05h-1.353z"/></g></svg>