<svg width="42" height="36" viewBox="0 0 42 36" xmlns="http://www.w3.org/2000/svg"><title>Fill 4</title><path d="M20.842 26.425L3.151 18l5.754-2.74 11.53 5.49.003-.005a.936.936 0 0 0 .404.097.936.936 0 0 0 .405-.097l.002.005 11.53-5.49L38.533 18l-17.69 8.425zm17.691-.846l-17.69 8.425L3.15 25.579l5.754-2.74 11.53 5.49.003-.006a.936.936 0 0 0 .404.098.936.936 0 0 0 .405-.098l.002.006 11.53-5.49 5.754 2.74zM3.151 10.42l17.691-8.424 17.691 8.424-17.69 8.425L3.15 10.421zM41.684 18a.942.942 0 0 0-.543-.849l.003-.006-6.161-2.934 6.161-2.934-.003-.006a.941.941 0 0 0 .543-.85.943.943 0 0 0-.543-.849l.003-.005L21.25.093l-.002.006A.924.924 0 0 0 20.842 0a.924.924 0 0 0-.404.099l-.003-.006L.54 9.567l.003.005a.943.943 0 0 0-.543.85c0 .377.224.696.543.849l-.003.006 6.162 2.934L.54 17.145l.003.006A.942.942 0 0 0 0 18c0 .378.224.697.543.85l-.003.005 6.162 2.934L.54 24.724l.003.006a.942.942 0 0 0-.543.85c0 .378.224.697.543.85l-.003.005 19.895 9.474.003-.006a.936.936 0 0 0 .404.098.936.936 0 0 0 .405-.098l.002.006 19.895-9.474-.003-.005a.941.941 0 0 0 .543-.85.942.942 0 0 0-.543-.849l.003-.006-6.161-2.935 6.161-2.934-.003-.005a.941.941 0 0 0 .543-.85z" fill="#fff" fill-rule="evenodd"/></svg>