<svg width="45" height="36" viewBox="0 0 45 36" xmlns="http://www.w3.org/2000/svg"><title>Imported Layers Copy 35</title><g fill="none" fill-rule="evenodd"><path fill="#FFF" d="M19.385 29.77h6.923v5.538h-6.923zm22.845-27A2.076 2.076 0 0 0 40.154.692H5.538c-1.147 0-2.076.93-2.076 2.077v24.923c0 1.147.93 2.077 2.076 2.077h34.616c1.147 0 2.077-.93 2.077-2.077V2.77"/><path d="M40.154 30.462H5.538a2.772 2.772 0 0 1-2.769-2.77V2.77A2.772 2.772 0 0 1 5.54 0h34.615a2.772 2.772 0 0 1 2.77 2.77v24.922a2.772 2.772 0 0 1-2.77 2.77zM5.538 1.385c-.763 0-1.384.62-1.384 1.384v24.923c0 .764.62 1.385 1.384 1.385h34.616c.763 0 1.384-.621 1.384-1.385V2.77c0-.763-.62-1.384-1.384-1.384H5.538zm19.385 29.077h1.385v4.153h-1.385zm-5.538 0h1.384v4.153h-1.384zM18 34.615h9.692V36H18z" fill="#000"/><path fill="#000" d="M4.154 23.538h37.384v1.385H4.154zm18 2.77h1.384v1.384h-1.384zM5.538 2.77h34.616v19.384H5.538z"/><path fill="#FFF" d="M6.923 4.154h6.923v4.154H6.923zm0 5.538h6.923V20.77H6.923zm8.307-5.538h6.924v4.154H15.23zm0 5.538h6.924V20.77H15.23zm8.308-5.538h6.924v4.154h-6.924zm0 5.538h6.924V20.77h-6.924zm8.308-5.538h6.923v4.154h-6.923zm0 5.538h6.923V20.77h-6.923z"/><path d="M15.923 33.923c0 .765-.62 1.385-1.385 1.385H2.077c-.765 0-1.385-.62-1.385-1.385V14.538c0-.764.62-1.384 1.385-1.384h12.461c.765 0 1.385.62 1.385 1.384v19.385" fill="#FFF"/><path d="M14.538 36H2.077A2.08 2.08 0 0 1 0 33.923V14.538a2.08 2.08 0 0 1 2.077-2.076h12.461a2.08 2.08 0 0 1 2.077 2.076v19.385A2.08 2.08 0 0 1 14.538 36zM2.077 13.846a.693.693 0 0 0-.692.692v19.385c0 .382.31.692.692.692h12.461c.382 0 .693-.31.693-.692V14.538a.693.693 0 0 0-.693-.692H2.077z" fill="#000"/><path fill="#000" d="M6.923 31.846h2.77v1.385h-2.77zM2.77 15.23h4.153V18H2.77zm0 4.155h4.153v11.077H2.77zm5.538-4.155h5.538V18H8.308zm0 4.155h5.538v11.077H8.308z"/><path d="M43.615 33.923c0 .765-.62 1.385-1.384 1.385h-6.923c-.765 0-1.385-.62-1.385-1.385V20.077c0-.765.62-1.385 1.385-1.385h6.923c.764 0 1.384.62 1.384 1.385v13.846" fill="#FFF"/><path d="M42.23 36h-6.922a2.08 2.08 0 0 1-2.077-2.077V20.077A2.08 2.08 0 0 1 35.308 18h6.923a2.08 2.08 0 0 1 2.077 2.077v13.846A2.08 2.08 0 0 1 42.23 36zm-6.922-16.615a.693.693 0 0 0-.693.692v13.846c0 .382.311.692.693.692h6.923c.381 0 .692-.31.692-.692V20.077a.693.693 0 0 0-.692-.692h-6.923z" fill="#000"/><path fill="#000" d="M36 20.77h5.538v4.153H36zm0 5.538h5.538v1.384H36zm0 2.769h5.538v1.385H36zm2.077 2.769h1.385v1.385h-1.385z"/></g></svg>