<svg width="266" height="130" viewBox="0 0 266 130" xmlns="http://www.w3.org/2000/svg" xmlns:xlink="http://www.w3.org/1999/xlink"><title>Page 1</title><defs><path id="a" d="M265.896 35.466V.596H0v34.87z"/><path id="c" d="M265.896 35.732V.863H0v34.87z"/><path id="e" d="M132.948 35h132.948V.13H0V35z"/></defs><g fill="none" fill-rule="evenodd"><g transform="translate(0 -.596)"><mask id="b" fill="#fff"><use xlink:href="#a"/></mask><path d="M199.42 35.466c-18.103 0-27.687-3.352-36.144-6.31-7.815-2.733-15.198-5.314-30.333-5.314-15.133 0-22.515 2.58-30.331 5.315-8.455 2.957-18.039 6.309-36.141 6.309-18.102 0-27.686-3.352-36.141-6.31-7.815-2.733-15.197-5.314-30.33-5.314V.596c18.103 0 27.686 3.352 36.14 6.309 7.816 2.733 15.197 5.314 30.331 5.314 15.135 0 22.516-2.581 30.331-5.314 8.456-2.957 18.039-6.31 36.141-6.31 18.105 0 27.688 3.353 36.144 6.31 7.816 2.733 15.199 5.314 30.333 5.314 15.135 0 22.518-2.581 30.333-5.314 8.456-2.957 18.04-6.31 36.144-6.31v23.247c-15.135 0-22.517 2.58-30.334 5.315-8.456 2.957-18.039 6.309-36.143 6.309" fill="#F7F8FA" mask="url(#b)"/></g><g transform="translate(0 46.404)"><mask id="d" fill="#fff"><use xlink:href="#c"/></mask><path d="M199.42 35.732c-18.103 0-27.687-3.352-36.144-6.309-7.815-2.733-15.198-5.314-30.333-5.314-15.133 0-22.515 2.581-30.331 5.314-8.455 2.957-18.039 6.31-36.141 6.31-18.102 0-27.686-3.353-36.141-6.31C22.515 26.69 15.133 24.11 0 24.11V.863c18.103 0 27.686 3.351 36.14 6.308 7.816 2.734 15.197 5.315 30.331 5.315 15.135 0 22.516-2.58 30.331-5.315 8.456-2.957 18.039-6.308 36.141-6.308 18.105 0 27.688 3.351 36.144 6.308 7.816 2.734 15.199 5.315 30.333 5.315 15.135 0 22.518-2.58 30.333-5.315 8.456-2.957 18.04-6.308 36.144-6.308V24.11c-15.135 0-22.517 2.581-30.334 5.314-8.456 2.957-18.039 6.31-36.143 6.31" fill="#F7F8FA" mask="url(#d)"/></g><g transform="translate(0 94.404)"><mask id="f" fill="#fff"><use xlink:href="#e"/></mask><path d="M199.42 35c-18.103 0-27.687-3.352-36.144-6.309-7.815-2.733-15.198-5.314-30.333-5.314-15.133 0-22.515 2.581-30.331 5.314C94.157 31.648 84.573 35 66.471 35c-18.102 0-27.686-3.352-36.141-6.309-7.815-2.733-15.197-5.314-30.33-5.314V.13c18.103 0 27.686 3.352 36.14 6.309 7.816 2.733 15.197 5.315 30.331 5.315 15.135 0 22.516-2.582 30.331-5.315C105.258 3.482 114.841.13 132.943.13c18.105 0 27.688 3.352 36.144 6.309 7.816 2.733 15.199 5.315 30.333 5.315 15.135 0 22.518-2.582 30.333-5.315C238.209 3.482 247.793.13 265.897.13v23.247c-15.135 0-22.517 2.581-30.334 5.314C227.107 31.648 217.524 35 199.42 35" fill="#F7F8FA" mask="url(#f)"/></g></g></svg>