<svg width="36" height="36" viewBox="0 0 36 36" xmlns="http://www.w3.org/2000/svg"><title>noun_221171</title><g fill="#FFF" fill-rule="evenodd"><path d="M18.282 0C8.542 0 .635 7.862.635 17.55S8.541 35.1 18.282 35.1c3.953 0 7.765-1.334 10.87-3.72v1.754h1.554v-4.633h-4.659v1.545h2.4c-2.894 2.316-6.423 3.58-10.094 3.58-8.965 0-16.235-7.23-16.235-16.076 0-8.845 7.27-16.006 16.164-16.006 8.894 0 16.165 7.16 16.165 16.006 0 3.51-1.13 6.81-3.247 9.617l1.2.913a17.362 17.362 0 0 0 3.53-10.53C36 7.862 28.023 0 18.281 0z"/><path d="M15.953 9.266a2.674 2.674 0 0 0-2.682 2.668v11.302c0 1.474 1.2 2.668 2.682 2.668h4.73a2.674 2.674 0 0 0 2.682-2.668V11.934c0-1.474-1.2-2.668-2.683-2.668h-4.73zm5.859 2.668v11.302c0 .632-.494 1.123-1.13 1.123h-4.73a1.111 1.111 0 0 1-1.128-1.123V11.934c0-.632.494-1.123 1.129-1.123h4.73c.564 0 1.129.491 1.129 1.123z"/><ellipse cx="18.282" cy="22.394" rx=".988" ry=".983"/></g></svg>