<svg width="47" height="38" viewBox="0 0 47 38" xmlns="http://www.w3.org/2000/svg"><title>noun_691964_cc</title><path d="M43.234 37A2.768 2.768 0 0 0 46 34.233V9.928c0-.763-.438-1.82-.979-2.36l-5.588-5.59C38.893 1.439 37.83 1 37.075 1H22.46a2.768 2.768 0 0 0-2.769 2.765v30.47A2.762 2.762 0 0 0 22.458 37h20.776zm-.001-4.159a1.39 1.39 0 0 1-1.381 1.39H23.84a1.383 1.383 0 0 1-1.377-1.388l.023-27.686a1.393 1.393 0 0 1 1.393-1.389l11.73-.002c.768 0 1.391.62 1.391 1.383v2.08A2.768 2.768 0 0 0 39.768 10h2.11c.768 0 1.39.623 1.388 1.39l-.033 21.451zM14.846 16.923a1.385 1.385 0 1 0 0-2.77H10a1.385 1.385 0 1 0 0 2.77h4.846zm24.923 11.77c0-.765-.62-1.385-1.384-1.385H27.308a1.385 1.385 0 1 0 0 2.769h11.077c.764 0 1.384-.62 1.384-1.385zm-5.538-5.54c0-.764-.62-1.384-1.385-1.384h-5.538a1.385 1.385 0 1 0 0 2.77h5.538c.765 0 1.385-.62 1.385-1.385zm4.154-5.538c0-.764-.62-1.384-1.385-1.384h-9.692a1.385 1.385 0 0 0 0 2.769H37c.765 0 1.385-.62 1.385-1.385zM25.923 9.306a1.38 1.38 0 0 1 1.383-1.383h2.772a1.38 1.38 0 0 1 1.384 1.383v2.772a1.38 1.38 0 0 1-1.384 1.384h-2.772a1.38 1.38 0 0 1-1.383-1.384V9.306zM14.846 22.462a1.385 1.385 0 0 0 0-2.77H2.385a1.385 1.385 0 1 0 0 2.77h12.461zm0 5.538a1.385 1.385 0 1 0 0-2.77H6.538a1.385 1.385 0 0 0 0 2.77h8.308z" stroke="#0068FC" fill="#FFF" fill-rule="evenodd"/></svg>