<svg width="79" height="78" viewBox="0 0 79 78" xmlns="http://www.w3.org/2000/svg"><title>noun_221171</title><g fill="#FFF" fill-rule="evenodd"><path d="M39.627 0C17.98 0 .412 17.472.412 39S17.98 78 39.627 78c8.785 0 17.255-2.964 24.157-8.268v3.9h3.451V63.336H56.882v3.432h5.334c-6.432 5.148-14.275 7.956-22.432 7.956C19.863 74.724 3.706 58.656 3.706 39c0-19.656 16.157-35.568 35.921-35.568C59.392 3.432 75.55 19.344 75.55 39c0 7.8-2.51 15.132-7.216 21.372L71 62.4c5.176-6.864 7.843-14.976 7.843-23.4C79 17.472 61.275 0 39.627 0z"/><path d="M34.451 20.592c-3.294 0-5.96 2.652-5.96 5.928v25.116c0 3.276 2.666 5.928 5.96 5.928h10.51c3.294 0 5.96-2.652 5.96-5.928V26.52c0-3.276-2.666-5.928-5.96-5.928H34.45zm13.02 5.928v25.116c0 1.404-1.098 2.496-2.51 2.496H34.45c-1.412 0-2.51-1.092-2.51-2.496V26.52c0-1.404 1.098-2.496 2.51-2.496h10.51c1.255 0 2.51 1.092 2.51 2.496z"/><ellipse cx="39.627" cy="49.764" rx="2.196" ry="2.184"/></g></svg>