<svg width="36" height="36" viewBox="0 0 36 36" xmlns="http://www.w3.org/2000/svg"><title>noun_826119_cc</title><g fill="#FFF" fill-rule="evenodd"><path d="M25.159 25.721a.563.563 0 0 1-.409-.165L10.444 11.25a.57.57 0 1 1 .806-.806L25.556 24.75a.563.563 0 0 1-.397.971z"/><path d="M10.841 25.721a.562.562 0 0 1-.397-.971L24.75 10.444a.57.57 0 1 1 .806.806L11.25 25.556a.563.563 0 0 1-.409.165z"/><path d="M18 36A18 18 0 0 1 5.273 5.273 17.88 17.88 0 0 1 18 0a17.88 17.88 0 0 1 12.727 5.272A18 18 0 0 1 18 36zm0-34.875A16.875 16.875 0 0 0 6.067 29.932c6.59 6.59 17.275 6.59 23.866 0 6.59-6.59 6.59-17.274 0-23.864A16.766 16.766 0 0 0 18 1.125z"/></g></svg>