<svg width="81" height="80" viewBox="0 0 81 80" xmlns="http://www.w3.org/2000/svg" xmlns:xlink="http://www.w3.org/1999/xlink"><title>Group 5</title><defs><path id="a" d="M0 79.854h69V0H0z"/></defs><g fill="none" fill-rule="evenodd"><ellipse fill="#FFE258" cx="53" cy="44" rx="28" ry="28"/><path d="M57.819 45.293a14.105 14.105 0 0 1 3.197 4.024c.827 1.547 1.438 3.282 1.82 5.15.382 1.886.649 3.803.79 5.693.07 1.21.142 2.627.214 4.26.068 1.64.194 3.338.375 5.047.18 1.721.47 3.378.866 4.923.1.387.216.756.339 1.117h1.031c-.162-.433-.312-.88-.432-1.357-.386-1.5-.67-3.108-.843-4.785a79.771 79.771 0 0 1-.372-4.987 290.552 290.552 0 0 0-.215-4.281 46.295 46.295 0 0 0-.808-5.822c-.4-1.96-1.044-3.78-1.914-5.412a15.046 15.046 0 0 0-3.416-4.3c-.8-.695-1.738-1.283-2.783-1.777v1.067a10.88 10.88 0 0 1 2.15 1.44zM51.816 4.082c1.981.8 3.764 1.828 5.328 3.065V6.68h.941a22.34 22.34 0 0 0-5.907-3.494 22.541 22.541 0 0 0-4.29-1.23v.985c1.383.269 2.697.646 3.928 1.141M61.824 34.39c-1.377 2.389-3.442 4.366-6.156 5.904v1.101c3.1-1.658 5.449-3.842 6.991-6.523 1.328-2.302 2.191-4.93 2.605-7.83h-.976c-.403 2.725-1.22 5.189-2.464 7.347" fill="#000"/><mask id="b" fill="#fff"><use xlink:href="#a"/></mask><path fill="#000" mask="url(#b)" d="M4.347 2.464h38.229v-.966H4.346zM1.208 75.506h.966V4.637h-.966zm48.126-6.016a132.223 132.223 0 0 0-.962-9.64c-.241-1.663-.6-3.143-1.064-4.455h-1.029c.502 1.324.884 2.849 1.135 4.59.424 3.046.745 6.265.955 9.566.138 2.167.43 4.157.869 5.955h1.005c-.458-1.803-.77-3.808-.909-6.016m-31.375 6.016h.966V51.05h-.966zm25.764-25.424c-1.96-1.439-4.818-2.171-8.53-2.171H21.098v.967h14.096c3.148 0 5.615.543 7.383 1.607v-.403h1.147zM4.347 78.647h11.439v-.966H4.346zm48.853 0h11.454v-.966H53.2zm-8.08-60.778c1.068.93 1.815 2.229 2.254 3.861h1.007c-.476-1.941-1.352-3.48-2.626-4.59-.98-.852-2.208-1.495-3.662-1.934v1.02c1.195.394 2.214.936 3.027 1.643M21.097 36.926H36.78v-.966H21.097zm0-21.446H36.78v-.966H21.097zm-3.138 18.244h.966v-16.07h-.966zm27.156-.202c-.811.722-1.828 1.276-3.022 1.677v1.023c1.457-.448 2.685-1.106 3.666-1.978 1.757-1.564 2.76-3.984 2.99-7.202h-.973c-.22 2.92-1.11 5.1-2.661 6.48M0 3.672h3.38V.29H0zm43.542 0h3.379V.29h-3.379zM16.75 16.689h3.382v-3.38H16.75zm0 21.381h3.382v-3.38H16.75zm0 12.012h3.382v-3.378H16.75zm26.792 4.346h3.379V51.05h-3.379zM16.75 79.854h3.382v-3.382H16.75zm-16.75 0h3.38v-3.382H0zm48.854 0h3.38v-3.382h-3.38zm16.764 0H69v-3.382h-3.38zM51.322 44.002h3.379v-3.38h-3.379zm-4.639-17.926h3.378v-3.38h-3.378zm-8.936-9.387h3.379v-3.38h-3.379zm0 21.381h3.379v-3.38h-3.379zM58.11 11.025h3.38v-3.38h-3.38zm8.717 15.051v-3.379h-1.294V3.322A1.694 1.694 0 0 0 65.05 0c-.94 0-1.7.76-1.7 1.7 0 .77.514 1.413 1.217 1.622V16.33a20.534 20.534 0 0 0-.598-1.673 20.337 20.337 0 0 0-1.512-2.93v.266h-.965a19.33 19.33 0 0 1 1.583 3.029c.852 2.091 1.343 4.343 1.474 6.71h.018v.967h-1.119v3.38h1.12v19.265a1.69 1.69 0 0 0-1.218 1.621 1.7 1.7 0 0 0 3.401 0c0-.77-.515-1.414-1.217-1.622V26.076h1.294z"/></g></svg>