<svg width="532" height="259" viewBox="0 0 532 259" xmlns="http://www.w3.org/2000/svg"><title>Page 1</title><path d="M398.84 69.74c-36.206 0-55.374-6.704-72.288-12.618-15.63-5.468-30.396-10.63-60.666-10.63-30.266 0-45.03 5.162-60.662 10.63-16.91 5.914-36.078 12.618-72.282 12.618-36.204 0-55.372-6.704-72.282-12.618C45.03 51.654 30.266 46.492 0 46.492V0c36.206 0 55.372 6.704 72.28 12.618 15.632 5.466 30.394 10.628 60.662 10.628 30.27 0 45.032-5.162 60.662-10.628C210.516 6.704 229.682 0 265.886 0c36.21 0 55.376 6.704 72.288 12.618 15.632 5.466 30.398 10.628 60.666 10.628 30.27 0 45.036-5.162 60.666-10.628C476.418 6.704 495.586 0 531.794 0v46.492c-30.27 0-45.034 5.162-60.668 10.63-16.912 5.914-36.078 12.618-72.286 12.618m0 94.533c-36.206 0-55.374-6.704-72.288-12.618-15.63-5.466-30.396-10.628-60.666-10.628-30.266 0-45.03 5.162-60.662 10.628-16.91 5.914-36.078 12.618-72.282 12.618-36.204 0-55.372-6.704-72.282-12.618-15.63-5.466-30.394-10.628-60.66-10.628V94.535c36.206 0 55.372 6.702 72.28 12.616 15.632 5.468 30.394 10.63 60.662 10.63 30.27 0 45.032-5.162 60.662-10.63 16.912-5.914 36.078-12.616 72.282-12.616 36.21 0 55.376 6.702 72.288 12.616 15.632 5.468 30.398 10.63 60.666 10.63 30.27 0 45.036-5.162 60.666-10.63 16.912-5.914 36.08-12.616 72.288-12.616v46.492c-30.27 0-45.034 5.162-60.668 10.628-16.912 5.914-36.078 12.618-72.286 12.618m0 94.535c-36.206 0-55.374-6.704-72.288-12.618-15.63-5.466-30.396-10.628-60.666-10.628-30.266 0-45.03 5.162-60.662 10.628-16.91 5.914-36.078 12.618-72.282 12.618-36.204 0-55.372-6.704-72.282-12.618-15.63-5.466-30.394-10.628-60.66-10.628v-46.494c36.206 0 55.372 6.704 72.28 12.618 15.632 5.466 30.394 10.63 60.662 10.63 30.27 0 45.032-5.164 60.662-10.63 16.912-5.914 36.078-12.618 72.282-12.618 36.21 0 55.376 6.704 72.288 12.618 15.632 5.466 30.398 10.63 60.666 10.63 30.27 0 45.036-5.164 60.666-10.63 16.912-5.914 36.08-12.618 72.288-12.618v46.494c-30.27 0-45.034 5.162-60.668 10.628-16.912 5.914-36.078 12.618-72.286 12.618" fill="#D9E8F5" fill-rule="evenodd" opacity=".247"/></svg>