<svg width="105" height="80" viewBox="0 0 105 80" xmlns="http://www.w3.org/2000/svg"><title>Group 14</title><g fill="none" fill-rule="evenodd"><ellipse fill="#D9E8F5" cx="77" cy="34" rx="28" ry="28"/><path d="M.003 0v74.412L0 74.416l7.764 5.533.003-.004h84.686v-57.82h-6.78V10.094H39.85L35.489.64 35.193 0H.003zm2.201 73.29l.001-1.079V2.201H33.79l4.36 9.453.296.64h45.027v9.83H7.767v55.13l-5.563-3.963zm7.765-48.963H90.25V77.74H9.969V24.327z" fill="#000"/><path d="M48.501 65.747v-2.202c-6.853 0-12.429-5.575-12.429-12.43 0-5.987 4.254-10.997 9.898-12.168l-2.317 2.7 1.67 1.433 4.756-5.542-.005-.004.005-.005-5.543-4.756-1.434 1.67 2.685 2.303c-6.774 1.276-11.917 7.23-11.917 14.368 0 8.07 6.564 14.633 14.631 14.633m7.179 3.548l1.435-1.67-2.684-2.304c6.774-1.277 11.916-7.228 11.916-14.368 0-8.068-6.563-14.632-14.631-14.632v2.202c6.853 0 12.43 5.575 12.43 12.43 0 5.987-4.255 10.998-9.9 12.168l2.318-2.698-1.67-1.434-4.756 5.54.004.004-.004.007 5.543 4.755z" fill="#000"/></g></svg>