<svg width="104" height="92" viewBox="0 0 104 92" xmlns="http://www.w3.org/2000/svg"><title>Group 10</title><g fill="none" fill-rule="evenodd"><ellipse fill="#ABEFC8" cx="76" cy="64" rx="28" ry="28"/><g fill="#000"><path d="M.004 0v74.41L0 74.416l7.763 5.533.003-.004h84.687v-57.82h-6.78v-12.03H39.85L35.489.64 35.193 0H.004zm2.2 73.293l.001-1.082V2.202H33.79l4.36 9.453.296.64h45.027v9.83H7.766v55.131l-5.562-3.963zM9.97 24.328h80.28V77.74H9.969V24.328z"/><path d="M59.798 62.418L70.267 51.95l-.006-.005.07-.072-10.468-10.467-1.557 1.557 8.917 8.916-8.982 8.983zM29.487 51.95l10.467 10.469 1.557-1.558-8.982-8.982 8.918-8.916-1.557-1.557-10.469 10.467.07.072zM54.06 37.778h-2.274L44.7 64.226h2.276z"/></g></g></svg>