<?xml version="1.0" encoding="UTF-8"?>
<svg width="105px" height="80px" viewBox="0 0 105 80" version="1.1" xmlns="http://www.w3.org/2000/svg" xmlns:xlink="http://www.w3.org/1999/xlink">
    <!-- Generator: Sketch 41.2 (35397) - http://www.bohemiancoding.com/sketch -->
    <title>Group 14</title>
    <desc>Created with Sketch.</desc>
    <defs></defs>
    <g id="LP:-Верстка" stroke="none" stroke-width="1" fill="none" fill-rule="evenodd">
        <g id="Сквозное-меню" transform="translate(-875.000000, -481.000000)">
            <g id="Group-4" transform="translate(770.000000, 450.000000)">
                <g id="Group-14" transform="translate(105.000000, 31.000000)">
                    <g id="Group-13">
                        <g id="Group-12">
                            <g id="Group-11">
                                <ellipse id="Oval-4" fill="#D9E8F5" cx="77" cy="34" rx="28" ry="28"></ellipse>
                                <path d="M0.00313043478,-6.52173912e-05 L0.00313043478,1.10036957 L0.00313043478,58.7525435 L0.00313043478,73.3116739 L0.00313043478,74.4121087 L8.6956521e-05,74.4162391 L7.76356522,79.9486304 L7.7666087,79.9445 L92.4526957,79.9445 L92.4526957,22.1247174 L85.6737826,22.1247174 L85.6737826,11.1942826 L85.6737826,10.0938478 L84.5722609,10.0938478 L39.8485652,10.0938478 L35.489,0.639717391 L35.192913,-6.52173912e-05 L0.00313043478,-6.52173912e-05 Z M2.204,73.2908043 L2.20530435,72.2110217 L2.20530435,71.8912391 L2.20530435,58.7525435 L2.20530435,2.20102174 L33.790087,2.20102174 L38.1507391,11.6538478 L38.4457391,12.2949348 L39.1476957,12.2949348 L83.472913,12.2949348 L83.472913,22.1247174 L7.7666087,22.1247174 L7.7666087,77.2549348 L2.204,73.2908043 Z M9.96856522,24.3266739 L90.2505217,24.3266739 L90.2505217,77.740587 L90.2496522,77.740587 L9.96856522,77.740587 L9.96856522,24.3266739 Z" id="Fill-1" fill="#000000"></path>
                                <g id="Group-6" transform="translate(33.695652, 32.557391)" fill="#000000">
                                    <path d="M14.8056957,33.1894783 L14.8056957,30.9875217 C7.95221739,30.9875217 2.37634783,25.4125217 2.37634783,18.5579565 C2.37634783,12.571 6.63026087,7.56034783 12.2743913,6.38947826 L9.95743478,9.08947826 L11.6274348,10.5223043 L16.3835217,4.98034783 L16.3783043,4.97621739 L16.3835217,4.97121739 L10.8406957,0.215130435 L9.40678261,1.88491304 L12.0911304,4.1883913 C5.31743478,5.46491304 0.174173913,11.4177391 0.174173913,18.5568696 C0.174173913,26.6257826 6.73786957,33.1894783 14.8056957,33.1894783" id="Fill-2"></path>
                                    <path d="M21.9852826,36.7373478 L23.4191957,35.0675652 L20.7357174,32.764087 C27.509413,31.4864783 32.651587,25.5358261 32.651587,18.3953913 C32.651587,10.3275652 26.0881087,3.76408696 18.0202826,3.76408696 L18.0202826,5.96604348 C24.8737609,5.96604348 30.4496304,11.5410435 30.4496304,18.3953913 C30.4496304,24.3823478 26.1957174,29.3932174 20.5505,30.564087 L22.8683261,27.8651739 L21.1985435,26.4312609 L16.4424565,31.971913 L16.446587,31.9760435 L16.4424565,31.9823478 L21.9852826,36.7373478 Z" id="Fill-4"></path>
                                </g>
                            </g>
                        </g>
                    </g>
                </g>
            </g>
        </g>
    </g>
</svg>