<svg width="18" height="13" viewBox="0 0 18 13" xmlns="http://www.w3.org/2000/svg"><title>noun_802364_cc</title><g fill="#0068FC" fill-rule="evenodd"><path d="M17.331 2.803C12.633-.441 5.49-.967.481 1.858c-.682.384 1.15 1.026 1.615.764C6.22.296 11.882.342 15.819 3.06c.376.26.942.376 1.392.3.387-.066.438-.338.12-.557z"/><path d="M9.018 1.901C4.106 1.901.043 5.368.043 7.137c0 1.68 4.247 5.236 8.975 5.236 4.912 0 8.976-3.467 8.976-5.236 0-1.68-4.247-5.236-8.976-5.236zm0 9.384c-4.438 0-7.888-3.309-7.888-4.148 0-.972 3.362-4.148 7.888-4.148 4.44 0 7.888 3.309 7.888 4.148 0 .867-3.356 4.148-7.888 4.148z"/><path d="M8.839 3.443a3.583 3.583 0 1 0 0 7.165 3.583 3.583 0 0 0 0-7.165zM10.057 7.6a1.239 1.239 0 1 1 0-2.478 1.239 1.239 0 0 1 0 2.478z"/></g></svg>