<?xml version="1.0" encoding="UTF-8"?>
<svg width="18px" height="13px" viewBox="0 0 18 13" version="1.1" xmlns="http://www.w3.org/2000/svg" xmlns:xlink="http://www.w3.org/1999/xlink">
    <!-- Generator: Sketch 41.2 (35397) - http://www.bohemiancoding.com/sketch -->
    <title>noun_802364_cc</title>
    <desc>Created with Sketch.</desc>
    <defs></defs>
    <g id="LP:-Верстка" stroke="none" stroke-width="1" fill="none" fill-rule="evenodd">
        <g id="Главная-страница-[960]" transform="translate(-154.000000, -754.000000)" fill="#0068FC">
            <g id="noun_802364_cc" transform="translate(154.000000, 754.000000)">
                <g id="Group">
                    <g id="Shape">
                        <path d="M17.3311176,2.80252941 C12.6333529,-0.440882353 5.48964706,-0.966058824 0.480823529,1.85811765 C-0.200764706,2.24241176 1.63147059,2.88382353 2.09570588,2.62217647 C6.22147059,0.295588235 11.8820588,0.341705882 15.8186471,3.05958824 C16.1949412,3.31964706 16.7612353,3.43605882 17.211,3.35964706 C17.5979412,3.29376471 17.6488235,3.02188235 17.3311176,2.80252941 L17.3311176,2.80252941 Z"></path>
                        <g transform="translate(0.000000, 1.882353)">
                            <path d="M9.01847059,0.0188235294 C4.10605882,0.0188235294 0.0428235294,3.48552941 0.0428235294,5.25482353 C0.0428235294,6.93435294 4.28952941,10.4905882 9.01847059,10.4905882 C13.9302353,10.4905882 17.9942941,7.02411765 17.9942941,5.25482353 C17.9942941,3.57547059 13.7474118,0.0188235294 9.01847059,0.0188235294 Z M9.01847059,9.40258824 C4.57958824,9.40258824 1.13029412,6.09394118 1.13029412,5.25488235 C1.13029412,4.28241176 4.49176471,1.10670588 9.01847059,1.10670588 C13.4572353,1.10670588 16.9064118,4.41547059 16.9064118,5.25488235 C16.9064118,6.12152941 13.5504118,9.40258824 9.01847059,9.40258824 Z"></path>
                            <path d="M8.83894118,1.56029412 C6.86041176,1.56029412 5.25611765,3.16394118 5.25611765,5.14305882 C5.25611765,7.12194118 6.86041176,8.72611765 8.83894118,8.72611765 C10.8176471,8.72611765 12.4220588,7.12194118 12.4220588,5.14305882 C12.4220588,3.16394118 10.8175882,1.56029412 8.83894118,1.56029412 Z M10.0570588,5.71729412 C9.37241176,5.71729412 8.81811765,5.16252941 8.81811765,4.47882353 C8.81811765,3.79482353 9.37247059,3.24005882 10.0570588,3.24005882 C10.7410588,3.24005882 11.2953529,3.79452941 11.2953529,4.47882353 C11.2953529,5.16258824 10.7410588,5.71729412 10.0570588,5.71729412 Z"></path>
                        </g>
                    </g>
                </g>
            </g>
        </g>
    </g>
</svg>