<?xml version="1.0" encoding="UTF-8"?>
<svg width="47px" height="38px" viewBox="0 0 47 38" version="1.1" xmlns="http://www.w3.org/2000/svg" xmlns:xlink="http://www.w3.org/1999/xlink">
    <!-- Generator: Sketch 41.2 (35397) - http://www.bohemiancoding.com/sketch -->
    <title>noun_691964_cc</title>
    <desc>Created with Sketch.</desc>
    <defs></defs>
    <g id="LP:-Верстка" stroke="none" stroke-width="1" fill="none" fill-rule="evenodd">
        <g id="Главная-страница-[960]" transform="translate(-159.000000, -671.000000)" stroke="#0068FC" fill="#FFFFFF">
            <g id="noun_691964_cc" transform="translate(160.000000, 672.000000)">
                <g id="Document_27">
                    <g id="Group">
                        <g id="Shape">
                            <path d="M42.2343389,36 C43.7617713,36 45,34.7590623 45,33.2328735 L45,8.92782519 C45,8.1645561 44.56169,7.10749419 44.0212537,6.5670579 L38.4329421,0.978746262 C37.8923955,0.438199615 36.8299542,0 36.0745894,0 L21.4606889,0 C19.9317542,0 18.6923077,1.23920148 18.6923077,2.76508336 L18.6923077,33.2349166 C18.6923077,34.76203 19.9258967,36 21.4579688,36 L42.2343389,36 Z M42.2329329,31.8409884 C42.2317379,32.6085432 41.6091874,33.2307692 40.8519575,33.2307692 L22.8403502,33.2307692 C22.0788535,33.2307692 21.4620688,32.6084732 21.4627213,31.8427192 L21.4863155,4.15670677 C21.4869688,3.39010795 22.1110824,2.7685287 22.8790181,2.76837099 L34.6084804,2.76596232 C35.3769954,2.76580454 36,3.38623962 36,4.14927498 L36,6.22922885 C36,7.75948348 37.2384523,9 38.7676989,9 L40.8773106,9 C41.645639,9 42.2675218,9.62331612 42.2663286,10.3897808 L42.2329329,31.8409884 Z M13.8461538,15.9230769 C14.6108558,15.9230769 15.2307692,15.3031635 15.2307692,14.5384615 C15.2307692,13.7737596 14.6108558,13.1538462 13.8461538,13.1538462 L9,13.1538462 C8.23529804,13.1538462 7.61538462,13.7737596 7.61538462,14.5384615 C7.61538462,15.3031635 8.23529804,15.9230769 9,15.9230769 L13.8461538,15.9230769 Z M38.7692308,27.6923077 C38.7692308,26.9276057 38.1493173,26.3076923 37.3846154,26.3076923 L26.3076923,26.3076923 C25.5429903,26.3076923 24.9230769,26.9276057 24.9230769,27.6923077 C24.9230769,28.4570097 25.5429903,29.0769231 26.3076923,29.0769231 L37.3846154,29.0769231 C38.1493173,29.0769231 38.7692308,28.4570097 38.7692308,27.6923077 Z M33.2307692,22.1538462 C33.2307692,21.3891442 32.6108558,20.7692308 31.8461538,20.7692308 L26.3076923,20.7692308 C25.5429903,20.7692308 24.9230769,21.3891442 24.9230769,22.1538462 C24.9230769,22.9185481 25.5429903,23.5384615 26.3076923,23.5384615 L31.8461538,23.5384615 C32.6108558,23.5384615 33.2307692,22.9185481 33.2307692,22.1538462 Z M37.3846154,16.6153846 C37.3846154,15.8506827 36.764702,15.2307692 36,15.2307692 L26.3076923,15.2307692 C25.5429903,15.2307692 24.9230769,15.8506827 24.9230769,16.6153846 C24.9230769,17.3800866 25.5429903,18 26.3076923,18 L36,18 C36.764702,18 37.3846154,17.3800866 37.3846154,16.6153846 Z M24.9230769,8.30637789 C24.9230769,7.54240182 25.5369506,6.92307692 26.3063779,6.92307692 L29.0782375,6.92307692 C29.8422136,6.92307692 30.4615385,7.53695058 30.4615385,8.30637789 L30.4615385,11.0782375 C30.4615385,11.8422136 29.8476648,12.4615385 29.0782375,12.4615385 L26.3063779,12.4615385 C25.5424018,12.4615385 24.9230769,11.8476648 24.9230769,11.0782375 L24.9230769,8.30637789 Z M13.8461538,21.4615385 C14.6108558,21.4615385 15.2307692,20.841625 15.2307692,20.0769231 C15.2307692,19.3122211 14.6108558,18.6923077 13.8461538,18.6923077 L1.38461538,18.6923077 C0.619913423,18.6923077 0,19.3122211 0,20.0769231 C0,20.841625 0.619913423,21.4615385 1.38461538,21.4615385 L13.8461538,21.4615385 Z M13.8461538,27 C14.6108558,27 15.2307692,26.3800866 15.2307692,25.6153846 C15.2307692,24.8506827 14.6108558,24.2307692 13.8461538,24.2307692 L5.53846154,24.2307692 C4.77375958,24.2307692 4.15384615,24.8506827 4.15384615,25.6153846 C4.15384615,26.3800866 4.77375958,27 5.53846154,27 L13.8461538,27 Z"></path>
                        </g>
                    </g>
                </g>
            </g>
        </g>
    </g>
</svg>