<svg width="36" height="30" viewBox="0 0 36 30" xmlns="http://www.w3.org/2000/svg"><title>Page 1</title><path d="M31.434 8.314l-3.86 6.65h2.757a12.94 12.94 0 0 1-1.775 6.504c-1.544 2.62-4.038 4.636-6.92 5.576h-.008c-4.503 1.5-9.621.272-12.96-3.083l-1.56 1.568c3.94 3.958 9.898 5.385 15.21 3.62 0-.003.006 0 .008 0a14.843 14.843 0 0 0 8.125-6.555 15.09 15.09 0 0 0 2.086-7.63h2.757l-3.86-6.65zM17.785.001a14.516 14.516 0 0 0-4.808.753c-.003.002-.006 0-.009 0C9.572 1.867 6.67 4.223 4.851 7.302c-.002.004-.006.006-.008.009a15.136 15.136 0 0 0-2.086 7.654H0l3.86 6.65 3.86-6.65H4.964a12.94 12.94 0 0 1 1.775-6.529c1.545-2.62 4.038-4.636 6.92-5.576h.008v-.01c4.473-1.498 9.6-.267 12.968 3.091l1.551-1.576A15.058 15.058 0 0 0 17.785.001z" fill="#303132" fill-rule="evenodd"/></svg>