<?xml version="1.0" encoding="UTF-8"?>
<svg width="24px" height="24px" viewBox="0 0 24 24" version="1.1" xmlns="http://www.w3.org/2000/svg" xmlns:xlink="http://www.w3.org/1999/xlink">
    <!-- Generator: Sketch 41.2 (35397) - http://www.bohemiancoding.com/sketch -->
    <title>Page 1 Copy 4</title>
    <desc>Created with Sketch.</desc>
    <defs>
        <polygon id="path-1" points="23.999904 3.41060513e-15 0 3.41060513e-15 0 23.999808 23.999904 23.999808 23.999904 0"></polygon>
    </defs>
    <g id="Page-1" stroke="none" stroke-width="1" fill="none" fill-rule="evenodd">
        <g id="LP:-Clean-Version" transform="translate(-33.000000, -748.000000)">
            <g id="sidemenu">
                <g id="Page-1-Copy-4" transform="translate(33.000000, 748.000000)">
                    <mask id="mask-2" fill="white">
                        <use xlink:href="#path-1"></use>
                    </mask>
                    <g id="Clip-2"></g>
                    <path d="M16.136544,8.871168 L16.136544,7.825728 C16.136544,7.575648 15.947424,7.376448 15.708384,7.376448 C15.376224,7.376448 15.043584,7.375968 14.710944,7.376448 C14.472864,7.376928 14.282784,7.576128 14.282784,7.826208 C14.282784,8.171808 14.281824,8.516928 14.284224,8.863008 C14.284224,8.914368 14.293824,8.968128 14.309184,9.016608 C14.369184,9.200928 14.529984,9.313728 14.727744,9.314688 C14.888064,9.314688 15.048384,9.314208 15.209184,9.314208 C15.382464,9.312288 15.557184,9.315648 15.730944,9.311328 C15.954624,9.305568 16.136544,9.105408 16.136544,8.871168 M11.950944,14.236128 C13.146624,14.262528 14.113824,13.264128 14.138784,12.049248 C14.164704,10.796928 13.197984,9.762048 11.999904,9.763008 C10.828704,9.762048 9.876864,10.747008 9.860544,11.966208 C9.843264,13.218048 10.801824,14.210208 11.950944,14.236128 M7.862784,15.887328 C7.862784,16.122528 8.057184,16.324608 8.281824,16.324608 L15.716064,16.324608 C15.943104,16.324608 16.136544,16.123008 16.136544,15.885888 C16.137024,14.254368 16.136544,12.622368 16.136544,10.990848 L16.136544,10.956768 L15.128544,10.956768 C15.271104,11.432448 15.314784,11.916288 15.259104,12.409248 C15.202944,12.902208 15.050784,13.361568 14.803104,13.785408 C14.555424,14.209728 14.234304,14.561088 13.841184,14.840928 C12.822144,15.566688 11.480064,15.630528 10.398624,14.995968 C9.851904,14.675328 9.422784,14.228448 9.123264,13.652928 C8.676864,12.793248 8.605344,11.891808 8.867424,10.956288 L7.862304,10.956288 L7.862304,10.986048 C7.862304,12.619968 7.862304,14.253888 7.862784,15.887328 M17.256864,16.564608 C17.265504,16.515648 17.272224,16.465728 17.279904,16.416768 L17.279904,7.583328 C17.272704,7.534848 17.266464,7.486368 17.257344,7.438368 C17.164704,6.943488 16.774464,6.559488 16.294944,6.490848 C16.275264,6.487968 16.255584,6.483648 16.236384,6.479808 L7.763904,6.479808 C7.712544,6.489408 7.661184,6.497088 7.610784,6.509088 C7.143264,6.620448 6.796704,7.014048 6.730464,7.509888 C6.727584,7.530528 6.723264,7.550688 6.719904,7.571328 L6.719904,16.428768 C6.729504,16.484928 6.737184,16.541568 6.749184,16.597248 C6.852864,17.075808 7.243584,17.446368 7.707744,17.508768 C7.730304,17.511648 7.752864,17.516448 7.775424,17.519808 L16.224384,17.519808 C16.279584,17.510208 16.334304,17.502048 16.389024,17.490048 C16.820064,17.394048 17.172384,17.018208 17.256864,16.564608 M11.999904,1.439808 C6.167904,1.439808 1.439904,6.167808 1.439904,11.999808 C1.439904,17.832288 6.167904,22.559808 11.999904,22.559808 C17.831904,22.559808 22.559904,17.832288 22.559904,11.999808 C22.559904,6.167808 17.831904,1.439808 11.999904,1.439808 M11.999904,-0.000192 C5.372544,-0.000192 -9.59999998e-05,5.372448 -9.59999998e-05,11.999808 C-9.59999998e-05,18.627648 5.372544,23.999808 11.999904,23.999808 C18.627264,23.999808 23.999904,18.627648 23.999904,11.999808 C23.999904,5.372448 18.627264,-0.000192 11.999904,-0.000192" id="Fill-1" fill="#000000" mask="url(#mask-2)"></path>
                </g>
            </g>
        </g>
    </g>
</svg>