<svg width="30" height="30" viewBox="0 0 30 30" xmlns="http://www.w3.org/2000/svg"><title>Imported Layers</title><g fill="#FFF" fill-rule="evenodd"><path d="M14.999 29.028c-6.223 0-11.287-5.063-11.287-11.287a.627.627 0 0 1 1.254 0c0 5.532 4.5 10.033 10.033 10.033 5.532 0 10.033-4.501 10.033-10.033a.627.627 0 0 1 1.254 0c0 6.223-5.064 11.287-11.287 11.287"/><path d="M14.999 29.028a.627.627 0 0 1-.627-.627V5.827a.627.627 0 0 1 1.254 0v22.574a.627.627 0 0 1-.627.627m14.363-8.818a.594.594 0 0 1-.345-.105l-3.357-2.22-3.357 2.221a.626.626 0 1 1-.691-1.045l3.703-2.45a.634.634 0 0 1 .691 0l3.703 2.45c.289.19.368.58.178.867a.634.634 0 0 1-.525.281m-21.32.001a.594.594 0 0 1-.345-.105l-3.357-2.22-3.357 2.221a.627.627 0 1 1-.692-1.046l3.703-2.449a.636.636 0 0 1 .692 0l3.704 2.45a.627.627 0 0 1-.348 1.148"/><path d="M14.999 6.402a3.139 3.139 0 0 1-3.135-3.136A3.139 3.139 0 0 1 14.999.131a3.139 3.139 0 0 1 3.135 3.135 3.139 3.139 0 0 1-3.135 3.136zm0-5.017a1.883 1.883 0 0 0-1.881 1.881c0 1.038.844 1.882 1.88 1.882a1.883 1.883 0 0 0 1.882-1.882 1.883 1.883 0 0 0-1.881-1.88zm3.135 8.205h-6.27a.627.627 0 0 1 0-1.255h6.27a.627.627 0 0 1 0 1.255"/></g></svg>