<?xml version="1.0" encoding="UTF-8"?>
<svg width="30px" height="30px" viewBox="0 0 30 30" version="1.1" xmlns="http://www.w3.org/2000/svg" xmlns:xlink="http://www.w3.org/1999/xlink">
    <!-- Generator: Sketch 41.2 (35397) - http://www.bohemiancoding.com/sketch -->
    <title>Imported Layers</title>
    <desc>Created with Sketch.</desc>
    <defs></defs>
    <g id="Page-1" stroke="none" stroke-width="1" fill="none" fill-rule="evenodd">
        <g id="LP:-Clean-Version" transform="translate(-585.000000, -5535.000000)" fill="#FFFFFF">
            <g id="Group-2-Copy" transform="translate(0.000000, 5332.096000)">
                <g id="Imported-Layers" transform="translate(585.000000, 203.000000)">
                    <path d="M14.9987705,28.9320984 C8.77593443,28.9320984 3.71188525,23.8692787 3.71188525,17.6451639 C3.71188525,17.2990328 3.99280328,17.0181148 4.33893443,17.0181148 C4.68506557,17.0181148 4.96598361,17.2990328 4.96598361,17.6451639 C4.96598361,23.1770164 9.46691803,27.678 14.9987705,27.678 C20.5305738,27.678 25.0315082,23.1770164 25.0315082,17.6451639 C25.0315082,17.2990328 25.3124754,17.0181148 25.6585574,17.0181148 C26.0047377,17.0181148 26.2856066,17.2990328 26.2856066,17.6451639 C26.2856066,23.868 21.2216066,28.9320984 14.9987705,28.9320984" id="Fill-1"></path>
                    <path d="M14.9987705,28.9320984 C14.6526393,28.9320984 14.3716721,28.6511311 14.3716721,28.3050492 L14.3716721,5.73127869 C14.3716721,5.38509836 14.6526393,5.10422951 14.9987705,5.10422951 C15.3449016,5.10422951 15.6258197,5.38509836 15.6258197,5.73127869 L15.6258197,28.3050492 C15.6258197,28.6511311 15.3449016,28.9320984 14.9987705,28.9320984" id="Fill-2"></path>
                    <path d="M29.3619344,20.1132787 C29.2428197,20.1132787 29.1236557,20.0831803 29.017082,20.0091639 L25.6598361,17.7894098 L22.3026393,20.0104426 C22.012918,20.2022951 21.6241475,20.1220328 21.4335246,19.8323607 C21.2441803,19.5451475 21.3219344,19.1550984 21.6116066,18.9645246 L25.3149344,16.5152459 C25.5231639,16.3785738 25.7977869,16.3785738 26.0059672,16.5152459 L29.7092951,18.9645246 C29.9977869,19.1550984 30.0767705,19.5451475 29.8874262,19.8323607 C29.7644754,20.0141803 29.5650984,20.1132787 29.3619344,20.1132787" id="Fill-3"></path>
                    <path d="M8.0422623,20.1132787 C7.92314754,20.1132787 7.80398361,20.0831803 7.69740984,20.0091639 L4.34016393,17.7894098 L0.982967213,20.0104426 C0.693245902,20.2022951 0.303196721,20.1220328 0.113852459,19.8323607 C-0.0767704918,19.5451475 0.00226229508,19.1550984 0.290655738,18.9645246 L3.99403279,16.5152459 C4.2034918,16.3785738 4.47688525,16.3785738 4.68629508,16.5152459 L8.38962295,18.9645246 C8.67811475,19.1550984 8.75709836,19.5451475 8.56647541,19.8323607 C8.44485246,20.0141803 8.24542623,20.1132787 8.0422623,20.1132787" id="Fill-4"></path>
                    <path d="M14.9987705,6.30560656 C13.270623,6.30560656 11.8635246,4.89978689 11.8635246,3.17036066 C11.8635246,1.44098361 13.270623,0.0351147541 14.9987705,0.0351147541 C16.7268689,0.0351147541 18.1340164,1.44098361 18.1340164,3.17036066 C18.1340164,4.89978689 16.7268689,6.30560656 14.9987705,6.30560656 L14.9987705,6.30560656 Z M14.9987705,1.28921311 C13.9616066,1.28921311 13.1175738,2.1332459 13.1175738,3.17036066 C13.1175738,4.20752459 13.9616066,5.0515082 14.9987705,5.0515082 C16.0358852,5.0515082 16.879918,4.20752459 16.879918,3.17036066 C16.879918,2.1332459 16.0358852,1.28921311 14.9987705,1.28921311 L14.9987705,1.28921311 Z" id="Fill-5"></path>
                    <path d="M18.1340164,9.49357377 L11.8635246,9.49357377 C11.5173443,9.49357377 11.2364754,9.21265574 11.2364754,8.86652459 C11.2364754,8.52034426 11.5173443,8.23947541 11.8635246,8.23947541 L18.1340164,8.23947541 C18.4801475,8.23947541 18.7610164,8.52034426 18.7610164,8.86652459 C18.7610164,9.21265574 18.4801475,9.49357377 18.1340164,9.49357377" id="Fill-6"></path>
                </g>
            </g>
        </g>
    </g>
</svg>