<?xml version="1.0" encoding="UTF-8"?>
<svg width="42px" height="36px" viewBox="0 0 42 36" version="1.1" xmlns="http://www.w3.org/2000/svg" xmlns:xlink="http://www.w3.org/1999/xlink">
    <!-- Generator: Sketch 41.2 (35397) - http://www.bohemiancoding.com/sketch -->
    <title>Fill 4</title>
    <desc>Created with Sketch.</desc>
    <defs></defs>
    <g id="LP:-Верстка" stroke="none" stroke-width="1" fill="none" fill-rule="evenodd">
        <g id="Главная-страница-[960]" transform="translate(-979.000000, -1030.000000)" fill="#000000">
            <g id="Group-20-Copy-2" transform="translate(130.000000, 980.000000)">
                <path d="M869.842105,76.4249474 L852.150947,68 L857.905263,65.2602105 L869.434737,70.7502105 L869.437579,70.7445263 C869.560737,70.8032632 869.696211,70.8421053 869.842105,70.8421053 C869.988,70.8421053 870.123474,70.8032632 870.246632,70.7445263 L870.249474,70.7502105 L881.778947,65.2602105 L887.533263,68 L869.842105,76.4249474 Z M887.533263,75.5789474 L869.842105,84.0038947 L852.150947,75.5789474 L857.905263,72.8391579 L869.434737,78.3291579 L869.437579,78.3234737 C869.560737,78.3822105 869.696211,78.4210526 869.842105,78.4210526 C869.988,78.4210526 870.123474,78.3822105 870.246632,78.3234737 L870.249474,78.3291579 L881.778947,72.8391579 L887.533263,75.5789474 Z M852.150947,60.4210526 L869.842105,51.9970526 L887.533263,60.4210526 L869.842105,68.846 L852.150947,60.4210526 Z M890.684211,68 C890.684211,67.6229474 890.460632,67.3046316 890.141368,67.1511579 L890.144211,67.1454737 L883.982526,64.2105263 L890.144211,61.2765263 L890.141368,61.2708421 C890.460632,61.1183158 890.684211,60.7990526 890.684211,60.4210526 C890.684211,60.0449474 890.460632,59.7256842 890.141368,59.5722105 L890.144211,59.5665263 L870.249474,50.0928421 L870.246632,50.0985263 C870.123474,50.0388421 869.988,50 869.842105,50 C869.696211,50 869.560737,50.0388421 869.437579,50.0985263 L869.434737,50.0928421 L849.54,59.5665263 L849.542842,59.5722105 C849.223579,59.7256842 849,60.0449474 849,60.4210526 C849,60.7990526 849.223579,61.1183158 849.542842,61.2708421 L849.54,61.2765263 L855.701684,64.2105263 L849.54,67.1454737 L849.542842,67.1511579 C849.223579,67.3046316 849,67.6229474 849,68 C849,68.378 849.223579,68.6972632 849.542842,68.8497895 L849.54,68.8554737 L855.701684,71.7894737 L849.54,74.7244211 L849.542842,74.7301053 C849.223579,74.8835789 849,75.2018947 849,75.5789474 C849,75.9569474 849.223579,76.2762105 849.542842,76.4287368 L849.54,76.4344211 L869.434737,85.9081053 L869.437579,85.9024211 C869.560737,85.9611579 869.696211,86 869.842105,86 C869.988,86 870.123474,85.9611579 870.246632,85.9024211 L870.249474,85.9081053 L890.144211,76.4344211 L890.141368,76.4287368 C890.460632,76.2762105 890.684211,75.9569474 890.684211,75.5789474 C890.684211,75.2018947 890.460632,74.8835789 890.141368,74.7301053 L890.144211,74.7244211 L883.982526,71.7894737 L890.144211,68.8554737 L890.141368,68.8497895 C890.460632,68.6972632 890.684211,68.378 890.684211,68 L890.684211,68 Z" id="Fill-4"></path>
            </g>
        </g>
    </g>
</svg>