<?xml version="1.0" encoding="UTF-8"?>
<svg width="36px" height="36px" viewBox="0 0 36 36" version="1.1" xmlns="http://www.w3.org/2000/svg" xmlns:xlink="http://www.w3.org/1999/xlink">
    <!-- Generator: Sketch 41.2 (35397) - http://www.bohemiancoding.com/sketch -->
    <title>noun_826119_cc</title>
    <desc>Created with Sketch.</desc>
    <defs></defs>
    <g id="_Forms" stroke="none" stroke-width="1" fill="none" fill-rule="evenodd">
        <g id="Модальное-окно-заказа" transform="translate(-1024.000000, -109.000000)" fill="#FFFFFF">
            <g id="modal" transform="translate(130.000000, 99.000000)">
                <g id="noun_826119_cc" transform="translate(894.000000, 10.000000)">
                    <g id="icon-base">
                        <path d="M25.15875,25.72125 C25.0057265,25.7241489 24.8581286,25.6645681 24.75,25.55625 L10.44375,11.25 C10.2211102,11.0273602 10.2211102,10.6663898 10.44375,10.44375 C10.6663898,10.2211102 11.0273602,10.2211102 11.25,10.44375 L25.55625,24.75 C25.7252148,24.9096472 25.7785721,25.1567837 25.6905238,25.3719205 C25.6024756,25.5870573 25.3911612,25.7258726 25.15875,25.72125 Z" id="Shape"></path>
                        <path d="M10.84125,25.72125 C10.6088388,25.7258726 10.3975244,25.5870573 10.3094762,25.3719205 C10.2214279,25.1567837 10.2747852,24.9096472 10.44375,24.75 L24.75,10.44375 C24.8940227,10.2997273 25.1039403,10.24348 25.300679,10.296196 C25.4974176,10.348912 25.651088,10.5025824 25.703804,10.699321 C25.75652,10.8960597 25.7002727,11.1059773 25.55625,11.25 L11.25,25.55625 C11.1418714,25.6645681 10.9942735,25.7241489 10.84125,25.72125 L10.84125,25.72125 Z" id="Shape"></path>
                        <path d="M18,36 L18,36 C10.7199419,35.9996586 4.15687665,31.6141034 1.3709652,24.8881876 C-1.41494625,18.1622717 0.124892207,10.4204492 5.2725,5.2725 C8.64044932,1.88553778 13.2235552,-0.013061759 18,1.19987353e-13 L18,1.19987353e-13 C22.7764448,-0.013061759 27.3595507,1.88553778 30.7275,5.2725 L30.7275,5.2725 C35.8751078,10.4204492 37.4149463,18.1622717 34.6290348,24.8881876 C31.8431234,31.6141034 25.2800581,35.9996586 18,36 L18,36 Z M18,1.125 C11.1746542,1.12494089 5.02134969,5.23640335 2.40939494,11.5421973 C-0.202559807,17.8479913 1.24122216,25.1062813 6.0675,29.9325 C12.6576378,36.5226378 23.3423622,36.5226378 29.9325,29.9325 C36.5226378,23.3423622 36.5226378,12.6576378 29.9325,6.0675 L29.9325,6.0675 C26.7746184,2.89263342 22.477929,1.11292362 18,1.125 L18,1.125 Z" id="Shape"></path>
                    </g>
                </g>
            </g>
        </g>
    </g>
</svg>