<?xml version="1.0" encoding="UTF-8"?>
<svg width="24px" height="24px" viewBox="0 0 24 24" version="1.1" xmlns="http://www.w3.org/2000/svg" xmlns:xlink="http://www.w3.org/1999/xlink">
    <!-- Generator: Sketch 41.2 (35397) - http://www.bohemiancoding.com/sketch -->
    <title>Page 1 Copy 5</title>
    <desc>Created with Sketch.</desc>
    <defs>
        <polygon id="path-1" points="11.99988 24 0 24 0 0 11.99988 0 23.99976 0 23.99976 24 11.99988 24"></polygon>
    </defs>
    <g id="Page-1" stroke="none" stroke-width="1" fill="none" fill-rule="evenodd">
        <g id="LP:-Clean-Version" transform="translate(-33.000000, -688.000000)">
            <g id="sidemenu">
                <g id="Page-1-Copy-5" transform="translate(33.000000, 688.000000)">
                    <mask id="mask-2" fill="white">
                        <use xlink:href="#path-1"></use>
                    </mask>
                    <g id="Clip-2"></g>
                    <path d="M12.87096,17.28 L12.87096,11.99952 L14.43288,11.99952 L14.63976,10.17984 L12.87096,10.17984 L12.87384,9.2688 C12.87384,8.79408 12.92184,8.54016 13.6524,8.54016 L14.62872,8.54016 L14.62872,6.72 L13.0668,6.72 C11.19,6.72 10.52952,7.60272 10.52952,9.08736 L10.52952,10.17984 L9.35976,10.17984 L9.35976,11.99952 L10.52952,11.99952 L10.52952,17.28 L12.87096,17.28 Z M11.99976,22.56 C17.83224,22.56 22.55976,17.832 22.55976,12 C22.55976,6.168 17.83224,1.44 11.99976,1.44 C6.16776,1.44 1.43976,6.168 1.43976,12 C1.43976,17.832 6.16776,22.56 11.99976,22.56 L11.99976,22.56 Z M11.99976,24 C18.6276,24 23.99976,18.62736 23.99976,12 C23.99976,5.37264 18.6276,0 11.99976,0 C5.3724,0 -0.000240000001,5.37264 -0.000240000001,12 C-0.000240000001,18.62736 5.3724,24 11.99976,24 L11.99976,24 Z" id="Fill-1" fill="#000000" mask="url(#mask-2)"></path>
                </g>
            </g>
        </g>
    </g>
</svg>